<?xml version="1.0" encoding="UTF-8" standalone="no"?>
<svg
   viewBox="0 0 1280 640"
   version="1.1"
   id="svg6"
   sodipodi:docname="preview.svg"
   width="1280"
   height="640"
   inkscape:version="1.1.2 (0a00cf5339, 2022-02-04)"
   inkscape:export-filename="/home/wighawag/dev/github.com/jolly-roger-eth/ethereum-indexer/docs/public/preview.png"
   inkscape:export-xdpi="236.77499"
   inkscape:export-ydpi="236.77499"
   xmlns:inkscape="http://www.inkscape.org/namespaces/inkscape"
   xmlns:sodipodi="http://sodipodi.sourceforge.net/DTD/sodipodi-0.dtd"
   xmlns="http://www.w3.org/2000/svg"
   xmlns:svg="http://www.w3.org/2000/svg">
  <defs
     id="defs10" />
  <sodipodi:namedview
     id="namedview8"
     pagecolor="#000000"
     bordercolor="#666666"
     borderopacity="1.0"
     inkscape:pageshadow="2"
     inkscape:pageopacity="0"
     inkscape:pagecheckerboard="0"
     showgrid="false"
     inkscape:zoom="0.64648438"
     inkscape:cx="784.24169"
     inkscape:cy="379.74622"
     inkscape:window-width="1920"
     inkscape:window-height="1127"
     inkscape:window-x="0"
     inkscape:window-y="0"
     inkscape:window-maximized="1"
     inkscape:current-layer="svg6"
     inkscape:snap-global="true"
     inkscape:snap-bbox="true"
     inkscape:snap-page="true" />
  <g
     class=""
     id="g4"
     transform="matrix(0.7192972,0,0,0.7192972,236.33496,130.43913)">
    <path
       d="m 375.4,395.8 c -7,8.2 -18.6,15.2 -32.7,20.2 -24.3,9 -55.5,13 -86.7,13 -31.2,0 -62.4,-4 -86.7,-13 -14.1,-5 -25.7,-12 -32.7,-20.2 L 110.8,417 c 10.2,12 26.6,23 47.1,30 27.5,10 62.8,15 98.1,15 35.3,0 70.6,-5 98.1,-15 20.6,-7 36.9,-18 47.1,-30 z M 144.7,379 h 222.6 c -22.7,43 -199.9,43 -222.6,0 z M 62.17,257.7 c -15.35,-3.8 -26.75,-17.6 -26.75,-34.1 0,-19.4 15.72,-35.1 35.08,-35.1 19.36,0 35.1,15.7 35.1,35.1 0,16.5 -11.42,30.3 -26.77,34.1 v 83 H 334 v 16.6 H 62.17 Z m 373.53,6.1 C 423.2,260.2 414,248.7 414,235 c 0,-16.6 13.4,-30 30,-30 16.6,0 30,13.4 30,30 0,13.7 -9.2,25.2 -21.7,28.8 v 61.5 h -248 v -16.6 h 231.4 z m -48,-96.8 c -9.2,-3.4 -15.7,-12.2 -15.7,-22.5 0,-13.2 10.8,-24 24,-24 13.2,0 24,10.8 24,24 0,10.3 -6.5,19.1 -15.7,22.5 v 43.4 c -4.4,7.2 -7,15.6 -7,24.6 0,9 2.6,17.4 7,24.6 v 32.7 h -190 V 275.7 H 387.7 Z M 256,75 c 50.8,0 92,41.2 92,92 0,50.8 -41.2,92 -92,92 -50.8,0 -92,-41.2 -92,-92 0,-50.8 41.2,-92 92,-92 z"
       fill="#ffffff"
       fill-opacity="1"
       id="path2" />
  </g>
  <text
     xml:space="preserve"
     style="font-style:normal;font-weight:normal;font-size:85.3333px;line-height:1.25;font-family:sans-serif;fill:#000000;fill-opacity:1;stroke:none"
     x="842.49396"
     y="303.32083"
     id="text4898"><tspan
       sodipodi:role="line"
       id="tspan4896"
       x="842.49396"
       y="303.32083"
       style="font-style:normal;font-variant:normal;font-weight:normal;font-stretch:normal;font-size:85.3333px;font-family:Audiowide;-inkscape-font-specification:Audiowide;text-align:center;text-anchor:middle;fill:#ffffff">ethereum</tspan><tspan
       sodipodi:role="line"
       x="842.49396"
       y="410.71655"
       style="font-style:normal;font-variant:normal;font-weight:normal;font-stretch:normal;font-size:85.3333px;font-family:Audiowide;-inkscape-font-specification:Audiowide;text-align:center;text-anchor:middle;fill:#ffffff"
       id="tspan10778">indexer</tspan></text>
</svg>
